<?xml version="1.0" encoding="UTF-8"?>
<svg id="Layer_2" data-name="Layer 2" xmlns="http://www.w3.org/2000/svg" viewBox="0 0 24.8 32">
  <defs>
    <style>
      .cls-1 {
        fill: #fcedd6;
      }
    </style>
  </defs>
  <g id="Layer_1-2" data-name="Layer 1">
    <path class="cls-1" d="M16.83,31.98c.5-.4.98-.85,1.45-1.35.12-.13.27-.32.45-.55.42-.56.79-1.06,1.1-1.65.78-1.46,1.21-3.02,1.27-4.68.03-.63-.01-1.25-.11-1.87-.09-.55-.24-1.16-.46-1.82-.06-.17-.21-.49-.45-.96-.86-1.65-2.25-2.93-3.97-3.62-1.31-.53-2.66-.67-4.05-.42-.61.11-1.22.31-1.83.62-1,.49-1.78,1.2-2.36,2.11-.56.88-.88,1.85-.97,2.92-.09,1.06.22,2.25.82,3.1.3.42.65.8,1.06,1.14.53.44,1.2.7,1.9.85.19.04.37.06.54.07,1.12.05,2.1-.31,2.94-1.06.63-.57,1.03-1.43,1.16-2.26.03-.2.04-.41.01-.62-.05-.44-.35-.82-.8-.96-.61-.19-1.33.22-1.44.87-.03.16-.02.38-.08.55-.14.48-.42.82-.83,1.02-.39.19-.81.22-1.26.11-.43-.1-.78-.33-1.08-.68-.45-.54-.66-1.16-.64-1.87.05-1.3.7-2.44,1.82-3.1.25-.14.58-.3.86-.39,1.21-.36,2.44-.32,3.58.22.7.33,1.33.79,1.84,1.39.46.55.8,1.12,1.02,1.69.44,1.17.57,2.38.39,3.63-.22,1.53-.78,2.89-1.7,4.09-.26.35-.61.72-1.04,1.11-.38.35-.78.66-1.21.92-.69.42-1.52.85-2.33,1.07-.64.17-1.27.28-1.9.34-.41.04-.89.04-1.25,0-.67-.08-1.4-.22-2.06-.42-1.36-.42-2.62-1.2-3.72-2.21-1.11-1.03-2.06-2.3-2.64-3.68-1.04-2.5-1.17-5.06-.41-7.67.43-1.49,1.08-2.85,1.91-4.23.5-.82,1.12-1.71,1.68-2.54.08-.12.3-.44.66-.95.71-1,1.31-1.93,1.81-2.78,1.09-1.86,1.82-4,1.84-6.14,0-.38.18-.77.47-1.02.33-.29.74-.37,1.24-.24.15.04.36.12.63.24.65.3,1.27.56,1.84.87,1.06.58,2.04,1.21,2.95,1.91,1.2.92,2.3,1.92,3.29,3.01.25.27.54.61.88,1.01,1.21,1.45,2.24,3.09,3.01,4.74.58,1.25,1.06,2.58,1.42,3.98.32,1.21.51,2.47.62,3.66.18,1.97,0,4.05-.69,5.92-.79,2.12-2.12,3.84-4,5.16-.19.13-.59.36-1.19.68-.63.34-1.3.59-2.01.77,0,0-.01,0-.01,0,0,0,0-.01,0-.01Z"/>
  </g>
</svg>