<?xml version="1.0" encoding="UTF-8"?>
<svg id="Layer_2" data-name="Layer 2" xmlns="http://www.w3.org/2000/svg" viewBox="0 0 729.29 910.41">
  <defs>
    <style>
      .cls-1 {
        fill: #223f43;
      }

      .cls-2 {
        fill: #fcedd6;
      }

      .cls-3 {
        fill: #2e5659;
      }
    </style>
  </defs>
  <g id="Layer_1-2" data-name="Layer 1">
    <g>
      <rect class="cls-3" x="351.77" y="100.12" width="197.37" height="587.47"/>
      <rect class="cls-1" x="232.48" y="100.12" width="131.07" height="587.47"/>
      <path class="cls-2" d="M365.31,910.21c-.56.34-1.28.23-1.71-.27-1.51-1.75-3.13-3.53-4.86-5.36-1.55-1.63-13.76-15.25-36.61-40.85-4.11-4.61-7.76-7.97-10.8-11.7-1.38-1.7-5.26-6-11.63-12.9-4.12-4.46-7.99-8.77-11.6-12.92-6.86-7.9-12.42-14.02-16.67-18.36-.03-.03-4.35-4.7-12.94-14.01-7.22-7.81-12.16-13.03-14.83-15.67-1.05-1.04-4.87-5.38-11.48-13.02-7.11-8.23-15.38-16.89-20.52-22.67-5.42-6.07-9.54-10.54-12.35-13.4-5.78-5.88-10.9-12.1-16.53-18.17-14.24-15.37-21.48-23.19-21.72-23.44-6.59-6.88-13.17-15.24-19.22-21.57-6.43-6.71-10.8-11.53-13.12-14.46-5.27-6.65-11.88-12.83-17.78-19.59-18.2-20.88-36.81-41.91-51.87-64.58-3.98-5.99-6.77-11.66-10.4-17.4-5.89-9.3-11.29-19.8-16.22-31.49-5.59-13.27-11.29-26.94-15.52-41.19-.99-3.35-3.25-11.86-6.77-25.53-2.24-8.71-4.02-17.53-5.31-27.63-.64-4.99-1.65-10.83-3.03-17.5-.32-1.57-.65-4.97-1-10.2-1.27-19.2-1.06-39.72.64-61.56.47-6,1.8-12.72,2.45-17.52,1.01-7.45,1.43-11.44,2.64-16.95,1.82-8.31,4.32-19,7.5-32.05,1.15-4.73,2.36-8.86,3.63-12.37,2.78-7.66,5.21-17.42,8.76-24.96,2.49-5.29,4.18-10.88,6.95-16.7,3.27-6.9,5.16-10.96,5.67-12.17,3.9-9.27,10.42-18.21,14.71-26.12,2.15-3.97,4.45-7.61,6.88-10.9,3.89-5.25,9.56-15.11,15.28-21.51,5.69-6.35,9.33-12.88,15.37-19.03,3.51-3.57,8.35-8.82,14.51-15.77,2.48-2.79,6.07-6.09,8.35-7.96,2.92-2.39,7.05-6.1,12.39-11.11,5.18-4.88,12.91-11.49,20.06-16.53,3.8-2.69,13.47-10.53,20.33-14.78,3.76-2.32,7.48-4.75,11.48-6.86,5.35-2.82,9.65-5.15,12.9-6.99,2.99-1.7,7.1-5.06,10.03-6.33,12.92-5.58,20.32-9.31,31.21-13.2,7.45-2.65,20.27-8.11,30.18-10.87,14.65-4.09,27.78-7.04,39.38-8.85,3.86-.61,10.37-1.49,19.52-2.65,19.97-2.55,40.79-3.22,62.47-2.01,10.14.56,18.57.65,27.74,1.88,14.82,1.99,31.29,5.35,49.4,10.1,6.73,1.76,13.49,3.92,20.28,6.47,14.49,5.44,27.94,10.9,40.35,16.37,4.35,1.93,8.66,4.37,12.91,7.33,2.49,1.73,5.55,3.45,9.19,5.14,8.49,3.96,17.44,9.63,23.06,13.66,1.45,1.04,8.84,6.53,22.17,16.48,4.62,3.45,8.99,7.71,12.56,11.19,4.67,4.55,12.76,10.45,17.9,15.2,1.03.95,1.89,1.86,2.58,2.73,3.5,4.45,6.4,7.94,11.2,12.44,4.9,4.59,9.4,10.03,13.51,16.31.77,1.17,4.04,5.16,9.83,11.97,3.33,3.9,5.35,7.88,8.2,12.16,10.14,15.25,17.51,27.39,22.11,36.43,4.62,9.05,10.55,22.32,17.79,39.8,2.19,5.29,3.66,9.35,4.43,12.17,1.46,5.4,3.52,10.17,5.04,16.55,5.43,22.91,8.7,37.62,9.81,44.13,1.56,9.09,3.05,21.27,4.48,36.53.47,5.05.68,9.93.63,14.64-.1,9.62.24,18.03-.42,27.63-.58,8.58-.88,17.8-2.41,25.64-1.08,5.53-1.49,11.55-2.65,16.87-1.78,8.12-2.59,13.85-4.47,21.35-3.15,12.53-5.16,20.26-6.04,23.17-.45,1.49-2.63,8.14-6.56,19.93-2.79,8.39-6.43,14.85-9.62,23.07-1.41,3.62-3.48,8.13-6.21,13.53-4.8,9.48-6.43,13.66-10.55,19.52-.37.52-1.61,2.6-3.73,6.25-2.42,4.16-7.61,12.13-15.56,23.9-3.05,4.51-7.4,9.77-9.76,12.6-3.75,4.51-9.28,12.72-14,17.68-3.8,4-9.44,9.73-14.44,15.85-5.61,6.87-11.37,13.26-17.28,19.17-4.18,4.19-7.88,9.4-11.59,13.39-3.92,4.21-9.52,9.62-13.51,14.18-7.15,8.17-12.86,14.47-17.15,18.88-7.99,8.22-15.18,16.94-22.65,24.52-5.84,5.92-9.29,10.51-14.88,17.1-2.05,2.42-4.13,4.61-6.24,6.57-4.61,4.27-9.05,8.98-13.34,14.12-7.12,8.54-14.75,15.82-20.92,22.98-6.01,6.98-14.03,14.85-20.89,22.96-6.62,7.82-14.88,15.52-20.7,22.43-5.38,6.38-9.5,11.01-12.35,13.9-4.34,4.39-8.34,8.84-12.01,13.33-3.36,4.11-6.71,7.88-10.05,11.33-5.67,5.83-10.03,10.56-13.09,14.18-4.72,5.59-8.8,10.2-12.25,13.82-6.96,7.31-10.78,12.05-16.47,18.22-.78.85-1.51,1.47-2.18,1.88ZM364.82,250.96c-18.97-.6-32.62-.52-40.96.25-31.87,2.91-51.05,32.57-61.59,59.87-5.45,14.11-9.99,28.23-13.63,42.36-5.02,19.46-9.42,44.55-13.2,75.27-.49,4-.48,7.31.04,9.93,1.89,9.58,8.94,16.43,18.85,17.31,9.34.83,18.51-4.25,22.17-13.07,1.32-3.19,2.1-6.01,2.35-8.45,1.86-18.78,4.72-37.18,8.58-55.19,2.25-10.51,4.63-19.46,7.12-26.85,2.53-7.51,4.83-14.33,6.88-20.44.96-2.85,2.61-6.15,3.62-8.4.09-.19.32-.26.51-.17.13.07.21.2.21.35-.15,2.27-.22,3.68-.23,4.22-.24,73.62-.32,196.24-.28,285.03,0,9.65.26,15.44.79,17.38,1.55,5.71,4.8,10.44,9.76,14.19,3.53,2.67,8.14,4.18,13.82,4.52,12.8.75,23.45-7.13,26.92-19.27.6-2.09.86-8.35.79-18.77-.31-44.69-.38-96.4-.21-155.13,0-.36.27-.65.63-.68l7.09-.51,5.93.13c.49,0,.89.4.92.89.2,3.79.3,7.61.29,11.47-.06,94.51-.08,143.36-.07,146.55.02,5.83-.14,11.59,1.06,16.62,2.05,8.6,8.33,15.55,17.2,17.89,2.71.71,4.35,1.12,4.93,1.23.32.06.64.05.96-.02.1-.02,1.94-.11,5.53-.27,2.21-.09,4.31-.59,6.32-1.49,10.93-4.88,16.27-13.56,16-26.04-.17-7.96-.23-20.7-.16-38.22.13-33.17.15-66.14.06-98.91-.17-65.04.1-113.69-.02-163.37-.01-7.42-.35-13.04,3.32-18.18,3.13-4.37,7.22-8.2,12.27-11.51,8.83-5.78,16.72-10.14,24.67-16.47,10.87-8.65,16.32-12.99,16.34-13.01,16.13-14.21,29.33-30.56,39.6-49.04,9.27-16.67,16.21-36.18,21.51-55.05,1.88-6.71,4.31-16.78,2.38-23.65-2.56-9.09-10.87-15.36-20.46-15.05-8.81.28-17.12,5.32-19.44,13.61-1.95,6.97-4.24,14.7-6.85,23.17-2.6,8.44-6.65,16.62-10.6,25.41-5.61,12.47-13.04,23.54-22.28,33.23-2.57,2.7-5.95,5.79-10.14,9.26-5.55,4.61-9.13,7.48-10.72,8.59-5.48,3.81-8.91,6.06-10.28,6.73-3.08,1.51-6.14,3.02-9.18,4.52-4.8,2.38-9.5,3.91-14.3,4.77-14.74,2.66-29.69,2.2-44.82,2.46ZM364.97,236.74c11.92-.07,23.5-3.99,33.02-11.16,12.59-9.49,20.54-23.9,21.86-39.61,1.22-14.45-3.28-28.8-12.53-39.97-7.08-8.56-16.58-14.78-27.25-17.88-4.91-1.42-9.99-2.16-15.09-2.19-7.84-.05-15.59,1.57-22.76,4.74-14.07,6.22-24.93,18.03-29.95,32.58-4.53,13.13-3.97,27.48,1.57,40.21,3.21,7.37,7.98,13.95,13.99,19.29,10.23,9.09,23.46,14.07,37.14,13.99Z"/>
    </g>
  </g>
</svg>