<?xml version="1.0" encoding="UTF-8"?>
<svg id="Layer_2" data-name="Layer 2" xmlns="http://www.w3.org/2000/svg" viewBox="0 0 729.62 910.58">
  <defs>
    <style>
      .cls-1 {
        fill: #fff;
      }

      .cls-2 {
        fill: #97c6e0;
      }

      .cls-3 {
        fill: #cae8f2;
      }
    </style>
  </defs>
  <g id="Layer_1-2" data-name="Layer 1">
    <g>
      <path class="cls-2" d="M364.96,910.41c-.41.27-.96.21-1.29-.15-19.43-21.47-33.7-37.37-42.81-47.69-5.25-5.95-9.8-10.31-14.97-16.37-7.74-9.08-16.39-18-24.89-27.4-38.56-42.6-90.98-99.69-115.86-126.72-9.35-10.16-19.6-21.76-31.09-34.38-14.14-15.54-30.04-33.56-47.71-54.05-11.57-13.41-21.82-27.39-30.77-41.94-3.57-5.79-9.86-15.91-14.15-24.36-13.4-26.43-23.61-53.8-30.64-82.09-1.45-5.83-3.36-15.25-5.73-28.26C1.16,405.62-.48,383.53.12,360.75c.17-6.63.34-10.8.51-12.52.49-5.01.79-9.17.88-12.48.05-1.63.56-6.13,1.54-13.5,3.86-29.15,11.48-58.78,21.2-85.57,4.33-11.93,10.92-26.41,19.78-43.46,6.84-13.15,16.34-28.14,28.5-44.95,6.35-8.77,16.16-20.37,29.45-34.8,7.75-8.42,15.01-14.39,23.87-22.8,3.23-3.06,6.56-5.94,9.98-8.64,11.11-8.75,19.98-15.37,26.59-19.84,12.63-8.54,26.57-16.68,41.81-24.42,13.13-6.67,29.79-13.45,49.98-20.34,9.82-3.36,17.8-5.14,29.78-8.14,19.12-4.79,42.23-7.63,63.91-8.82,12.97-.71,26.78-.61,41.42.29,8.1.5,13.51,1.33,23.67,2.53,22.35,2.66,45.59,8.26,69.74,16.8,4.07,1.43,10.22,3.75,18.47,6.95,5.53,2.15,9.79,3.97,12.79,5.47,5.77,2.88,10.78,4.71,16.67,8.15,7.91,4.62,16.64,8.78,24.26,13.68,9.89,6.35,15.84,10.24,17.85,11.67,12.93,9.21,26,19.88,39.22,31.99,5.25,4.81,9.6,9.13,13.05,12.94,6.34,7,11.45,11.66,16.99,18.58,9.05,11.32,14.72,18.56,16.99,21.71,2.58,3.58,7.34,10.77,14.28,21.56,14.42,22.44,25.96,46.65,34.62,71.74,9.32,27,15.63,54.38,18.92,82.15,2.19,18.56,3.32,37.67,2.53,55.82-.06,1.33-.4,6.33-1.03,15.01-.37,5.05-.86,10.04-1.48,14.95-3.99,31.82-11.86,62.59-23.6,92.32-4.77,12.08-10.6,24.57-17.51,37.48-4.26,7.97-10.3,18.01-18.13,30.13-5.3,8.2-11.41,16.49-18.34,24.86-8.35,10.11-15.05,17.95-20.08,23.52-4.29,4.77-8.23,9.27-11.81,13.5-4.35,5.14-11.15,12.03-16.18,17.66-20.99,23.49-41.53,45.22-60.43,66.36-12.41,13.88-21.9,24.25-28.45,31.11-4.17,4.35-8.15,8.81-11.96,13.36-4.02,4.82-10.35,10.97-16.27,17.54-7.89,8.76-20.08,22.06-36.55,39.89-4.59,4.97-8.74,9.56-12.43,13.77-5.66,6.46-13.77,14.38-19.91,22.14-3.05,3.85-6.46,6.85-10.18,10.96-19.56,21.64-31.3,34.63-35.23,38.98-1.73,1.91-3.35,3.37-4.84,4.37ZM364.99,451.92c16.32.01,32.9.34,49.05-.51,8.52-.45,14.68-.91,18.48-1.37,19.89-2.41,39.22-7.97,57.99-16.66,7.07-3.28,13.19-6.7,18.34-10.27,7.19-4.98,12.72-9.29,16.59-12.93,6.75-6.33,11-10.58,12.77-12.73,10.02-12.16,17.85-24.98,23.49-38.47,5.54-13.23,9.03-27.84,10.48-43.82,1.57-17.27.91-34.18-1.98-50.73-.77-4.39-1.74-8.64-2.91-12.73-4.77-16.64-11.87-33.1-22.69-46.81-7.04-8.92-13.92-16.88-22.42-24.19-4.59-3.95-10.16-7.85-16.71-11.71-11.95-7.03-22.65-12.05-32.09-15.04-13.09-4.14-26.11-7.02-39.06-8.64-7.93-.99-19.5-1.5-34.69-1.54-11.65-.03-23.24,0-34.77.07h-137.84c-.24,0-.44.2-.44.44h0v473.69c0,.25.2.45.45.45h98.92c.25,0,.46-.21.46-.46v-165.45c0-.34.27-.61.61-.61h0l37.97.02Z"/>
      <path class="cls-3" d="M364.86,143.84l-.06,84.37-38.1.17c-.17,0-.31.14-.31.31v136.77c0,.55.45,1,1,1l37.73-.11-.13,85.57-37.97-.02c-.34,0-.61.27-.61.61h0v165.45c0,.25-.21.46-.46.46h-98.92c-.25,0-.45-.2-.45-.45h0V144.28c0-.24.2-.44.44-.44h137.84Z"/>
      <path class="cls-1" d="M364.99,451.92l.13-85.57c13.79-.08,27.08-.15,39.88-.2,20.18-.07,38.52-6.41,52-21.68,5.25-5.95,9.2-13.56,11.83-22.84,4.01-14.16,4.57-28.62,1.66-43.39-3.39-17.29-11.98-30.43-25.76-39.43-4.58-2.99-9.7-5.31-15.35-6.95-6.11-1.77-11.65-2.77-16.62-3.01-12.29-.6-28.28-.81-47.96-.64l.06-84.37c11.53-.07,23.12-.1,34.77-.07,15.19.04,26.76.55,34.69,1.54,12.95,1.62,25.97,4.5,39.06,8.64,9.44,2.99,20.14,8.01,32.09,15.04,6.55,3.86,12.12,7.76,16.71,11.71,8.5,7.31,15.38,15.27,22.42,24.19,10.82,13.71,17.92,30.17,22.69,46.81,1.17,4.09,2.14,8.34,2.91,12.73,2.89,16.55,3.55,33.46,1.98,50.73-1.45,15.98-4.94,30.59-10.48,43.82-5.64,13.49-13.47,26.31-23.49,38.47-1.77,2.15-6.02,6.4-12.77,12.73-3.87,3.64-9.4,7.95-16.59,12.93-5.15,3.57-11.27,6.99-18.34,10.27-18.77,8.69-38.1,14.25-57.99,16.66-3.8.46-9.96.92-18.48,1.37-16.15.85-32.73.52-49.05.51Z"/>
      <path class="cls-2" d="M364.8,228.21c19.68-.17,35.67.04,47.96.64,4.97.24,10.51,1.24,16.62,3.01,5.65,1.64,10.77,3.96,15.35,6.95,13.78,9,22.37,22.14,25.76,39.43,2.91,14.77,2.35,29.23-1.66,43.39-2.63,9.28-6.58,16.89-11.83,22.84-13.48,15.27-31.82,21.61-52,21.68-12.8.05-26.09.12-39.88.2l-37.73.11c-.55,0-1-.45-1-1v-136.77c0-.17.14-.31.31-.31l38.1-.17Z"/>
    </g>
  </g>
</svg>