<?xml version="1.0" encoding="UTF-8"?>
<svg id="Layer_2" data-name="Layer 2" xmlns="http://www.w3.org/2000/svg" viewBox="0 0 730.11 905.92">
  <defs>
    <style>
      .cls-1 {
        fill: #49b6e1;
      }

      .cls-2 {
        fill: #f16438;
      }

      .cls-3 {
        fill: #ec4934;
      }

      .cls-4 {
        fill: #223f43;
      }

      .cls-5 {
        fill: #97c6e0;
      }

      .cls-6 {
        fill: #cae8f2;
      }
    </style>
  </defs>
  <g id="Layer_1-2" data-name="Layer 1">
    <g>
      <path class="cls-3" d="M491.28,299.83l-1.39-2.11c-.07-.1-.08-.24-.02-.35,0-.01.1.01.27.04.14.02.28-.05.34-.17.08-.16.02-.35-.14-.42-.65-.29-1.04-.64-1.2-1.03.45,1.52,1.06,2.94,1.81,4.25,0,0,0,.01.01.01.05.09.17.11.25.06h.01s.01-.01.01-.02c.09-.06.11-.17.05-.26ZM479.04,276.47c.13.09.14.09.06.02-.02-.02-.04-.02-.06-.02Z"/>
      <path class="cls-4" d="M729.05,335.92c-.41-8.19-2.52-19.52-3.6-26.73-3.32-22.23-9.23-44.47-16.62-66.53-1.9-5.68-4.03-11.1-6.38-16.27-2.65-5.82-4.5-10.01-5.55-12.56-6.07-14.76-15-29.76-24.05-44.17-7.28-11.6-13.44-20.63-20.73-29.65-2.4-2.98-5.63-7.03-9.68-12.14-5.53-6.97-12.43-13.28-17.99-19.33-4.14-4.51-8.88-9.1-14.22-13.75-11.46-9.98-21.81-18.29-31.04-24.92-19.73-14.17-40.92-26.39-63.57-36.68-8.73-3.97-19-8.6-28.12-11.58-16.91-5.53-27.98-9-33.21-10.4-15.97-4.27-34.28-7.41-54.93-9.43-17.15-2.12-35.04-2.02-51.69-1.36-1.87.07-11.81,1.11-29.83,3.11-10.46,1.16-20.31,2.83-29.54,5-24.88,5.85-46.01,11.8-67.69,21.53-12.13,5.44-21.68,9.97-28.65,13.6-5.33,2.78-15.45,8.95-30.36,18.52-7.9,5.07-12.38,9.03-20.59,15.11-4.91,3.64-9.88,7.64-14.9,12-23.13,20.14-43.66,42.95-61.6,68.43-.31.44-.52.86-.65,1.25-.1.3-.28.56-.53.76-.7.57-1.53,1.76-2.5,3.58-.61,1.15-1.36,2.4-2.26,3.75-7.99,11.94-14.61,23.39-19.84,34.35-.28.59-2.71,5.78-7.3,15.58-2.78,5.95-5.03,11.21-6.75,15.8-7.63,20.38-13.41,40.96-17.34,61.75-.62,3.26-1.98,11.41-4.07,24.45-.8,4.97-1.42,10.06-1.86,15.27-.75,9.01-1.14,14.12-1.18,15.33-.81,26.31.55,50.2,4.07,71.69,1.57,9.58,4.15,22.06,7.76,37.44,1.51,6.47,3.94,14.46,7.28,23.97,4.16,11.85,7.07,19.69,8.73,23.52,3.7,8.52,8.66,19.56,13.45,28.21,6.05,10.92,10.34,19.42,17.05,29.35,9.49,14.04,18.93,26.52,28.31,37.44,10.43,12.16,30.43,35.22,43.86,50.12,31.29,34.73,57.95,63.88,80,87.47,9.74,10.42,16.53,17.74,20.36,21.97,15.45,17.06,29.41,31.94,41.49,45.66.69.79,3.23,3.58,7.61,8.37,10.54,11.51,21.64,23.59,33.29,36.22,5.3,5.75,8.65,9.41,10.05,10.99,5.29,5.97,8.56,9.61,9.81,10.92,9.42,9.91,18,19.34,25.74,28.31.79.93,1.61,1.74,2.44,2.45.93.79,1.84,1.54,2.73,2.23,1.32.02,2.62-.67,3.91-2.07,9.34-10.12,18.87-20.52,28.58-31.2,5.25-5.77,8.03-8.87,8.32-9.31.46-.69,2.22-2.56,5.29-5.59,1.83-1.81,3.56-3.71,5.19-5.7,5.55-6.76,10.32-12.19,14.29-16.3,8.2-8.49,15.7-17.68,23.9-25.96,6.29-6.35,10.12-12.08,15.89-17.99,8.25-8.45,14.99-16.57,22.71-24.58,2.74-2.84,10.33-11.1,22.76-24.79,7.64-8.42,20.21-21.49,27.79-29.85,11.41-12.57,20.51-22.55,27.3-29.94,4.49-4.9,9.06-9.84,13.71-14.81,5.05-5.41,9.57-10.38,13.56-14.91,6.95-7.9,14.18-15.16,20.66-22.7,5.69-6.63,11.47-13.14,17.32-19.53,4.82-5.26,8.6-9.67,11.33-13.23,6.08-7.94,11.18-13.71,16.15-21.37,5.93-9.16,12.09-18.89,18.48-29.2,4.71-7.61,9.17-16.01,13.38-25.22,6.14-13.47,12.58-28.63,17.16-43.48,2.56-8.29,4.27-14.25,5.12-17.87,2.28-9.59,4.81-18.71,6.25-26.93,3.42-19.54,5.54-35.8,6.36-48.79.2-3.13.35-13.04.44-29.73.04-6.72-.75-12.59-1.06-18.95ZM524.09,368.95c.08-.05.2-.02.26.06.07.11.09.31.05.59.31.1.52.34.62.73.02.08-.01.17-.08.22-.1.08-.24.06-.31-.04-.17-.23-.25-.54-.23-.91-.21.07-.34-.09-.39-.47,0-.07.02-.14.08-.18ZM494.7,305.18c.08-.05.18-.02.22.06.37.76.56,1.17.56,1.22-.03.09-.09.17-.18.22-.18.09-.4.02-.5-.16-.09-.18-.15-.58-.18-1.2,0-.06.03-.11.08-.14ZM389.55,147.07l13.84,18.6s.08.11.11.17l1.49,2.61c.04.07.12.09.18.05l.24-.14s.1-.01.14.03c8.93,11.93,18.1,26.34,22.78,32.34.33.43.9,1.02,1.69,1.77.17.17.33.35.46.55l21.99,32.34c.32.47.42,1.05.29,1.6-.17.65.04,1.05.61,1.18.17.04.32.16.4.31l1.23,2.23s.02.03.03.04c.13.18.38.21.56.08.03-.02.04-.07.02-.16-.01-.02,0-.04.02-.05.01-.02.04-.01.05.01,1.21,1.65,3.15,4.41,5.82,8.26.5.71,1,1.37,1.51,1.96,1.27,1.49,1.98,2.99,2.13,4.51,0,.02.01.03.02.05.02.04.08.05.12.02l.26-.19s.02-.01.04-.02c.03,0,.06.03.06.06.14,1.18.61,2.02,1.42,2.52,0,0,0,0,0,.01.04,0,.09,0,.1-.04.05-.09.07-.15.07-.2.67,2.2,1.74,4.23,3.2,6.08l3.42,4.5s.02.03.03.04c.1.17.04.38-.13.48l-.48.28s-.08.06-.1.1c-.08.13-.04.29.09.37.23.14,1.05.62,2.46,1.44.64.37.88.9.71,1.59-1.4-.96-1.44-.49-.12,1.4.02.02.04.02.06.02.03-.01.05-.03.04-.06-.02-.03-.1-.11-.23-.24-.01,0-.02-.02-.03-.03-.07-.1-.06-.24.04-.31l.24-.17s.04-.03.07-.04c.13-.05.27.02.32.15.33.85.77,1.42,1.31,1.71.06.04.11.09.13.16.04.15-.04.31-.19.35-.11.03-.19.04-.22.03-.03-.01-.07,0-.09.03-.04.04-.04.1,0,.14.66.47,1.08.76,1.27.88.02,0,.04,0,.06.02.08.07.07.07-.06-.02t-.02.01s-.08.06-.06.11l.11.36s0,.01,0,.02c-.01.01-.03.01-.04,0l-.23-.4s-.07-.07-.13-.08c-.09-.02-.19.05-.2.15-.2,1.41.34,2.32,1.63,2.73.37.12.58.5.49.87-.15.61-.06.92.26.95.26.02.49.17.6.4.55,1.07,1.12,1.84,1.72,2.3.03.02.06.05.07.09.04.1-.01.22-.11.26-.11.05-.14.15-.09.31.04.15.08.23.12.25,1.65.83,2.49,2.15,2.54,3.96,0,.36.2.68.5.86.54.33.81.94.81,1.82,0,.24.15.46.37.55.32.13.45.47.4,1.02-.02.18.04.33.14.36.03.01.06.04.09.09,0,.02.03.03.05.02.05-.01.08-.06.09-.12.01-.02-.03-.11-.11-.28-.03-.06-.02-.14.03-.19.07-.06.17-.05.23.01.13.13.22.29.25.46.15.77.33,1.52.54,2.24-.02-.1-.03-.2-.02-.3,0-.08.05-.15.12-.18.11-.05.23-.01.28.1.2.42.31.64.34.65.1.06.22.06.32,0,.14-.09.19-.28.1-.43l-1.12-1.91c-.1-.16-.05-.36.1-.47l.22-.15s.01,0,.01-.01c.03-.01.06,0,.08.03l3.81,7.7s.01.04,0,.06c-.02.02-.06.02-.08,0-.73-.71-1.19-1.52-1.37-2.44-.03-.17-.18-.29-.35-.29h-.36s-.08.02-.09.06c-.13.49.05.9.55,1.24.25.17.35.49.24.77-.18.46-.05.84.38,1.14.01,0,.02.01.03.01.03,0,.06-.03.06-.06,0-.15.01-.23.02-.25.04-.07.1-.11.17-.13.16-.05.32.05.36.2,1.24,4.33,2.43,7.22,3.57,8.69,0,0,0,.02.02.03.03.02.08.01.1-.02l.08-.12s.03-.03.05-.04c.06-.03.14-.01.18.06l5.76,10.39c.09.16.23.3.39.4.14.08.29.14.45.18.28.07.47.24.57.5.01.03,0,.06-.01.08-.03.05-.09.06-.14.03-.07-.07-.14-.12-.2-.15-.02-.02-.05-.03-.08-.03-.13-.04-.27.05-.3.18-.02.08-.03.16-.03.25-.01.02,0,.04.02.04,1.33.62,2.16,1.71,2.5,3.27l3.63,5.86c.86,1.38,1.25,2.91,1.17,4.59.08.62.31,1.09.69,1.42.06.05.15.04.2-.02.01-.01-.01-.11-.06-.3-.02-.06.02-.12.08-.14s.12.02.14.08c.1.33.32.67.67,1,.27.26.39.65.31,1.02-.13.57-.14,1.11-.04,1.6.07.34.21.67.41.95,1.29,1.83,2.01,3.13,2.14,3.9.49,2.83,1.54,5.65,3.17,8.44.13.23.23.48.28.74.3,1.5.97,3.13,2,4.88.73,1.24,1.11,1.97,1.13,2.18.07.81.19,1.41.36,1.78,1.37,2.99,2.01,5.35,1.92,7.07-.02.32.09.63.31.86,1.23,1.32,1.6,2.75,2.06,4.86.07.33.13.3.17-.09.01-.15.06-.25.15-.32.02-.02.04-.03.07-.03.1-.04.22.03.25.14,1.05,3.67,2.09,7.16,3.12,10.47.99,3.15,1.85,6.67,2.59,10.55,4.01,21.1,3.36,42.21-1.93,63-1.25,4.89-1.98,7.76-2.21,8.63-2.94,11.28-8.03,21.53-14.84,34.83-2.71,5.29-5.44,9-8.8,14.1-.82,1.24-2.16,3.01-4.03,5.31-6.04,7.43-12,15.32-19.99,22.31-5.62,4.91-13.07,11.92-20.18,16.68-4.44,2.97-8.19,5.78-12.23,7.9-11.25,5.89-23.82,11.74-36.95,15.24-9.23,2.47-15.45,3.94-18.66,4.41-8.93,1.31-16.84,1.89-23.74,1.75-1.71-.03-2.8.04-3.27.21h-1.52c-17.73-.52-34.59-3.22-50.57-8.09-11.31-3.45-23.97-8.93-35.06-15.87-7.86-4.92-13.03-8.38-20.73-14.56-8.95-7.18-16.83-14.88-23.63-23.11-24.09-29.16-37.37-62.58-39.84-100.26-.31-4.85-.15-10.61.49-17.28,1.25-12.93,4.08-25.4,8.5-37.43,5.39-14.66,11.95-30.8,19.57-45.82,9.45-18.61,18.03-34.32,25.74-47.13,5.06-8.4,15.42-24.76,31.07-49.08,7.16-11.13,13.87-20.85,20.14-29.17,1.41-1.87,8.31-11.46,20.72-28.77,1.31-1.83,2.45-3.46,3.41-4.87,3.74-5.49,13.41-17.63,22.64-30.24,4.72-6.44,9.8-12.4,14.48-18.83l2.68-3.16c.04-.05.1-.09.16-.13.26-.14.58-.04.72.22l.23.45c.07.08.13.16.19.23,4.28,4.08,8,8.68,11.15,13.81M383.88,139.58s.06.05.1.05c.08.01.15-.05.15-.13"/>
      <path class="cls-6" d="M365.01,103.81c.07.08.14.17.2.24-.14,5.19-.22,10.37-.23,15.56,0,2.14,0,3.47-.01,3.97-.04,16.65-.11,28.4-.19,35.25-.13,11.32-.08,23.07.17,35.26.17,8.07.19,19.47.07,34.22-.12,15.44.35,36.21.03,53.29-.23,12.66-.04,22.51-.03,37.36.04,100.46.02,156.78-.05,168.95-.13,23.08-.12,43.36.04,60.83.16,16.86-.15,33.88-.36,50.96,0,.13.02.25.05.38.34,1.15.23,2.25-.33,3.3-6.47-2.66-13.17-4.28-20.09-4.85-7.68-.63-14.04-1.31-19.26-2.73-16.96-4.64-31.04-10.09-42.26-16.35-2.4-1.34-7.46-4.57-15.18-9.69-9.88-6.55-18.69-14.58-27.14-20.69-2.61-1.88-6.54-5.84-7.93-7.88-6.1-8.92-8.28-12.55-14.5-19.83-8.78-10.28-15.31-27.48-19.52-36.08-1.65-3.36-3.54-8.56-4.19-11.82-1.27-6.47-2.77-12.66-4.49-18.55-.94-3.23-1.51-6.9-1.69-11-.91-20.69-.25-40.73,6.91-59.73,1.67-4.45,5.62-14.74,11.86-30.88,5.4-13.98,12.7-28.62,18.24-38.45,6.01-10.67,9.63-17.19,10.85-19.55,5.57-10.83,13.77-19.97,18.91-30.41.59-1.19,1.89-3.42,3.91-6.69,7.17-11.62,13.63-21.84,19.37-30.67,5.09-7.82,9.51-14.32,13.58-19.26,4.28-5.19,7.29-11.5,11.05-16.71,5.73-7.95,12.02-16.98,18.53-25.48,5.55-7.24,10.46-14.82,14.72-22.74,2-3.69,7.27-8.63,10.2-12.55,3.42-4.56,5.45-10.66,10.09-16.29,1.89-2.29,2.81-4.58,4.67-7.92l2.83-3.34c.21-.24.56-.27.8-.07.05.05.1.1.13.16l.24.48Z"/>
      <path class="cls-5" d="M390.88,135.18l14.64,19.67c.04.06.08.12.12.18l1.58,2.76c.04.07.12.09.19.06,0,0,0,0,0,0l.25-.15s.11-.01.15.03c9.44,12.62,19.14,27.86,24.09,34.2.35.46.95,1.08,1.79,1.87.18.18.35.37.49.58l23.26,34.2c.34.5.45,1.11.31,1.69-.18.69.04,1.11.65,1.25.18.05.34.17.42.33l1.3,2.36c.12.2.37.27.58.16.02,0,.03-.02.05-.03.04-.02.04-.08.02-.17-.01-.02,0-.05.02-.06s.05,0,.06.02c1.28,1.75,3.33,4.66,6.16,8.74.53.75,1.06,1.45,1.6,2.07,1.35,1.57,2.1,3.16,2.25,4.77,0,.05.05.09.1.09.02,0,.03,0,.05-.02l.27-.2s.07-.02.09,0c0,.01.02.02.02.04.15,1.25.65,2.14,1.5,2.67.04.02.09.01.11-.02,0,0,0,0,0,0,.07-.13.09-.23.05-.29.71,2.35,1.84,4.52,3.41,6.5l2.07,4.14c.13.24.19.51.2.78.01,1.54.68,2.5,2,2.88.11.03.2.03.23,0,.05-.06.06-.11.02-.17-.02-.05.01-.08.08-.08.04,0,.09.02.13.05.61.52,1.15,1.09,1.61,1.71-1.48-1.02-1.52-.52-.13,1.48.02.02.06.03.09.01.02-.01.02-.03.02-.05-.02-.04-.1-.12-.24-.25-.1-.08-.11-.23-.02-.33.01-.01.02-.02.03-.03l.25-.18c.11-.09.28-.07.37.04.02.02.03.05.04.07.35.9.81,1.51,1.39,1.81.14.08.19.26.11.4-.04.06-.1.11-.17.13-.12.04-.2.05-.23.03-.06-.01-.11.02-.13.08,0,.04,0,.07.03.1,1.16.82,1.63,1.14,1.41.95-.04-.03-.1-.02-.13.02-.02.03-.02.06-.01.09l.12.38s-.02.03-.03.03c0,0-.01,0-.02,0l-.24-.42c-.06-.09-.17-.12-.26-.06-.05.03-.08.08-.09.13-.21,1.49.36,2.45,1.72,2.89.39.13.61.53.52.92-.16.64-.06.98.27,1,.28.02.52.18.63.42.58,1.14,1.18,1.95,1.82,2.43.1.07.12.2.05.29-.02.03-.06.06-.1.08-.11.05-.14.16-.1.33.04.16.08.24.13.26,1.74.88,2.64,2.28,2.69,4.19.01.38.21.72.53.91.57.35.86.99.86,1.92,0,.26.15.49.39.58.34.13.48.49.42,1.08-.02.19.04.35.15.38.04,0,.07.04.1.1.02.04.07.03.11-.01.02-.03.03-.06.04-.09,0-.02-.03-.12-.12-.3-.04-.08,0-.19.08-.23.07-.03.15-.02.2.04.14.14.23.3.26.49.49,2.62,1.34,4.97,2.55,7.06.06.1.17.13.27.08,0,0,0,0,0,0h.01c.1-.07.13-.19.07-.29,0,0,0,0,0-.01l-1.47-2.23c-.07-.11-.08-.25-.02-.37,0,0,.1,0,.29.04.18.03.36-.1.39-.28.03-.14-.05-.28-.18-.35-.96-.44-1.41-.97-1.35-1.61,0-.12.11-.22.23-.21.08,0,.16.05.19.13.21.44.33.67.36.69.16.09.36.04.45-.12.06-.1.06-.23,0-.34l-1.18-2.02c-.1-.17-.06-.39.11-.5l.23-.16s.07-.02.09.01c0,0,0,0,0,0l4.03,8.14s.01.06-.02.07c-.02.01-.06,0-.08,0-.78-.75-1.26-1.61-1.45-2.58-.04-.18-.19-.31-.37-.31h-.38s-.08.03-.1.06c-.14.51.05.95.58,1.31.26.18.37.51.25.81-.19.49-.06.89.4,1.21.03.02.07,0,.09-.02,0,0,0-.02,0-.03,0-.16,0-.24.02-.26.09-.15.27-.2.42-.11.07.04.12.11.14.18,1.31,4.58,2.57,7.64,3.78,9.19.02.04.06.05.1.03.01,0,.02-.01.03-.02l.08-.13c.04-.06.13-.08.2-.03.02.01.04.03.05.05l6.09,10.99c.1.17.24.32.41.42.15.08.31.15.48.19.3.08.5.25.6.53.01.06-.02.11-.08.13-.03,0-.06,0-.08-.01-.08-.07-.15-.12-.21-.16-.12-.08-.29-.05-.37.08-.02.03-.03.05-.04.08-.02.08-.03.17-.03.26,0,.02,0,.03.02.04,0,0,0,0,0,0,1.4.66,2.28,1.81,2.64,3.46-.25-.75-.55-1.26-.9-1.5-.13-.1-.33-.08-.43.06-.05.07-.07.16-.06.25l.42,2.2s.03.03.06.04c0,0,.01.01.02.01.04.02.1.02.14,0,.04-.01.04-.04,0-.06h0c-.3-.25-.43-.49-.39-.71.02-.14.15-.23.29-.21.08.01.15.06.18.13,1.76,3.49,2.89,5.55,3.37,6.18,1.07,1.37,1.6,2.69,1.6,3.96,0,.22.15.4.36.43.18.04.32.12.4.26.08.66.33,1.16.73,1.5.06.05.16.04.21-.02,0,0,0,0,0,0,0,0-.01-.11-.06-.32-.02-.06.02-.13.08-.15.06-.02.13.02.15.08.11.35.34.71.71,1.06.29.27.41.68.33,1.08-.13.61-.15,1.17-.04,1.69.07.36.22.71.43,1,1.37,1.94,2.12,3.31,2.26,4.12.51,3,1.63,5.97,3.35,8.93.14.25.24.51.3.78.32,1.59,1.02,3.31,2.12,5.16.78,1.31,1.17,2.08,1.2,2.31.08.86.2,1.49.38,1.88,1.45,3.17,2.12,5.66,2.03,7.48-.02.34.1.67.33.91,1.3,1.4,1.69,2.91,2.18,5.14.08.35.14.31.18-.1.01-.16.07-.27.16-.34.09-.07.23-.05.3.04.02.02.03.05.04.07,1.11,3.88,2.21,7.57,3.3,11.07,1.04,3.33,1.96,7.05,2.74,11.16,4.24,22.31,3.55,44.64-2.04,66.63-1.32,5.17-2.1,8.21-2.34,9.13-3.11,11.93-8.49,22.77-15.69,36.84-2.87,5.59-5.75,9.52-9.31,14.91-.87,1.31-2.29,3.18-4.26,5.62-6.39,7.86-12.69,16.2-21.14,23.59-5.94,5.19-13.82,12.61-21.34,17.64-4.7,3.14-8.66,6.11-12.93,8.35-11.9,6.23-25.19,12.42-39.08,16.12-9.76,2.61-16.34,4.16-19.73,4.66-9.44,1.38-17.81,2-25.11,1.85-1.8-.04-2.96.04-3.46.22h-1.61c-.2-.24-.16-.51.13-.79.56-1.05.67-2.15.33-3.3-.04-.13-.05-.25-.05-.38.21-17.08.52-34.11.36-50.96-.16-17.47-.18-37.75-.04-60.83.07-12.17.09-68.49.05-168.95-.01-14.86-.2-24.7.03-37.36.32-17.08-.15-37.85-.03-53.29.12-14.75.1-26.16-.07-34.22-.25-12.19-.3-23.94-.17-35.26.08-6.85.15-18.6.19-35.25,0-.5.01-1.82.01-3.97.01-5.18.09-10.37.23-15.56,4.53,4.31,8.46,9.18,11.79,14.61l7.88,8.6c.05.06.14.08.21.03.03-.03.05-.07.06-.11"/>
      <path class="cls-3" d="M509.43,330.54s-.04.04-.06.07t0,0s.04-.05.06-.07Z"/>
      <path class="cls-1" d="M524.4,369.6c-.21.07-.34-.09-.39-.47-.02-.1.05-.19.15-.2.07,0,.14.02.19.08.07.11.09.31.05.59Z"/>
      <path class="cls-2" d="M524.4,369.6c.31.1.52.34.62.73.03.12-.05.24-.17.26-.08.02-.17-.01-.22-.08-.17-.23-.25-.54-.23-.91Z"/>
    </g>
  </g>
</svg>