<?xml version="1.0" encoding="UTF-8"?>
<svg id="Layer_2" data-name="Layer 2" xmlns="http://www.w3.org/2000/svg" viewBox="0 0 918.63 735.65">
  <g id="Layer_1-2" data-name="Layer 1">
    <g>
      <path d="M918.63,367.84c0,5.22-1.22,9.91-3.66,14.06-5.71,9.75-14.43,14.62-26.16,14.62-182.18.02-337.35.02-465.52.01-.52,0-.97.35-1.09.85-15.8,62.17-78.5,100.87-141.16,87.2-44.15-9.64-78.92-43.35-90.3-87.08-.15-.57-.66-.96-1.24-.96-94.88-.04-145.73-.02-152.54.05-8.73.09-14.59-.42-17.58-1.53C7.81,390.75.03,380.34.03,367.83s7.78-22.91,19.35-27.22c2.99-1.11,8.85-1.62,17.58-1.53,6.81.07,57.66.09,152.54.05.58,0,1.09-.39,1.24-.96,11.38-43.73,46.15-77.44,90.3-87.08,62.66-13.67,125.36,25.03,141.16,87.2.12.5.57.85,1.09.85,128.17-.01,283.34,0,465.52.02,11.73,0,20.45,4.87,26.16,14.61,2.44,4.16,3.66,8.85,3.66,14.07ZM368.55,367.81c0-34.29-27.79-62.08-62.08-62.08-34.29,0-62.08,27.79-62.08,62.08h0c0,34.29,27.79,62.08,62.08,62.08h0c34.29,0,62.08-27.79,62.08-62.08Z"/>
      <path d="M918.6,119.48c0,12.5-7.79,22.91-19.35,27.22-2.99,1.11-8.86,1.62-17.59,1.53-6.81-.07-57.66-.09-152.53-.05-.58,0-1.09.39-1.24.96-11.38,43.73-46.15,77.44-90.3,87.07-62.66,13.67-125.35-25.03-141.15-87.19-.12-.5-.57-.85-1.09-.85-128.16,0-283.33,0-465.5-.02-11.73,0-20.46-4.87-26.17-14.62C1.25,129.37.03,124.69.03,119.47s1.22-9.91,3.65-14.07c5.71-9.74,14.44-14.61,26.17-14.61,182.17-.02,337.34-.02,465.5,0,.52,0,.97-.35,1.09-.85,15.8-62.17,78.5-100.86,141.15-87.19,44.15,9.64,78.92,43.34,90.3,87.07.15.57.66.96,1.24.96,94.87.04,145.72.02,152.53-.05,8.73-.09,14.6.43,17.59,1.54,11.56,4.3,19.35,14.71,19.35,27.22ZM674.26,119.5c0-34.29-27.79-62.08-62.08-62.08h0c-34.29,0-62.08,27.79-62.08,62.08s27.79,62.08,62.08,62.08c34.29,0,62.08-27.79,62.08-62.08h0Z"/>
      <path d="M918.6,616.16c0,12.5-7.78,22.92-19.35,27.22-2.99,1.11-8.85,1.62-17.58,1.53-6.81-.07-57.66-.09-152.54-.05-.58,0-1.09.39-1.24.96-11.38,43.73-46.15,77.44-90.3,87.08-62.66,13.67-125.36-25.03-141.16-87.2-.12-.5-.57-.85-1.09-.85-128.17.02-283.34.02-465.52,0-11.73,0-20.46-4.87-26.17-14.62-2.43-4.16-3.65-8.85-3.65-14.07s1.22-9.9,3.65-14.06c5.71-9.75,14.44-14.62,26.17-14.62,182.18-.02,337.35-.02,465.52-.01.52,0,.97-.35,1.09-.85,15.8-62.17,78.5-100.87,141.16-87.2,44.15,9.64,78.92,43.34,90.3,87.07.15.57.66.96,1.24.96,94.88.04,145.73.02,152.54-.05,8.73-.09,14.59.43,17.58,1.54,11.57,4.3,19.35,14.71,19.35,27.22ZM674.24,616.14c0-34.28-27.79-62.07-62.07-62.07h0c-34.28,0-62.07,27.79-62.07,62.07s27.79,62.07,62.07,62.07,62.07-27.79,62.07-62.07h0Z"/>
    </g>
  </g>
</svg>