<?xml version="1.0" encoding="UTF-8"?>
<svg id="Layer_2" data-name="Layer 2" xmlns="http://www.w3.org/2000/svg" viewBox="0 0 1852.45 333.71">
  <defs>
    <style>
      .cls-1 {
        fill: #fff;
      }
    </style>
  </defs>
  <g id="Layer_2-2" data-name="Layer 2">
    <g id="Layer_1-2" data-name="Layer 1-2">
      <g>
        <path class="cls-1" d="M1761.08,84.44s.04.11.03.16c0,.04-.01.08-.03.12.05-.08.05-.19,0-.28Z"/>
        <path class="cls-1" d="M1523.69,28c-.06.02-.12.04-.18.06-.5.13-1.05-.01-1.66-.4-4.41-2.87-8.96-4.9-13.64-6.11-6.08-1.57-13.22-3.56-19.63-3.37-7.11.21-13.28,1.08-18.5,2.6-11.3,3.29-20.96,10.96-27.58,21.38-10.58,16.64-13.37,34.77-15.38,54.08-2.06,19.82-3.77,34.57-5.14,44.25-.07.5-.65,4-1.73,10.51-3.09,18.57-8.79,35.43-17.12,50.6-5.11,9.29-11.94,18.23-20.49,26.84-8.19,8.25-17.22,14.95-27.09,20.11-9.05,4.73-17.95,8.39-26.7,10.97-8.15,2.41-17.63,3.88-28.46,4.42-20.83,1.05-41.08-1.57-60.75-7.86-7.37-2.36-14.22-3.52-20.36-5.65-8.59-2.99-17.79-5.49-27.59-7.5-7.87-1.62-16.27-2.31-25.21-2.06-10.54.3-20.56,2.23-30.05,5.8-4.45,1.67-9.72,4.06-15.81,7.19-3.43,1.76-6.53,3.95-9.28,6.58-5.45,4.45-10.44,9.32-14.98,14.61-3.03,3.53-5.87,6.92-8.51,10.15-.29.35-.81.41-1.17.12-.23-.19-.34-.49-.29-.79,1.25-7.11,3.79-13.26,7.29-20.07,5.46-10.63,11.62-19.32,18.49-26.07,6.07-5.96,14.72-12.37,23.8-16.42,22.37-9.99,46.48-13.5,70.51-9.97,5.82.86,12.04,1.9,18.67,3.13,8.72,1.62,19.39,4.25,29.89,5.58,2.89.37,6.56.94,10.99,1.71.61.11,3.62.16,9.04.15,1.2,0,2.39-.2,3.52-.58,3.24-1.1,5.88-2.19,7.93-3.26,2.91-1.52,4.42-3.1,7.01-5.8,4.96-5.17,7-11.75,6.11-19.74-.5-4.51-1.16-8.11-1.99-10.8-2.48-8.11-6.85-16.95-9.93-25.35-9.31-25.37-14.57-39.77-15.76-43.21-4.49-12.92-9.77-25.59-12.41-38.09-2.16-10.23,1.67-19.77,11.25-24.64,6.6-3.35,13.76-3.42,21.48-.19,5.35,2.23,9.14,9.87,10.62,14.76,4.6,15.18,12.54,37.19,18.93,57.01,3.54,10.96,6.74,19.41,10.76,31.01,3.27,9.41,5.29,16.29,6.07,20.64,1.62,9.04,1.48,17.92-.41,26.64-.63,2.85-1.68,5.79-3.17,8.82-.01.33.04.53.13.61.44.35.9.37,1.39.06,8.15-5.14,15.27-11.62,21.36-19.43,7.2-9.25,11.6-20.18,15.06-32.1,2.47-8.49,3.14-18.53,4.68-28.7.36-2.37.75-6.24,1.16-11.59,1.08-13.93,2.68-27.01,4.79-39.23,2.08-12.01,5.98-24.03,11.71-36.06.76-1.6,2.59-4.61,5.49-9.03,10.83-16.5,25.25-27.01,43.25-31.53,27.59-6.92,57.88-1.21,78.19,19.9.97,1.01,1.71,2.15,2.21,3.4.3.75-.06,1.61-.81,1.91h0Z"/>
        <path class="cls-1" d="M1655.33,115.17c-2.21-10.3-6.74-20.01-11.63-29.79-6.07-12.13-17.74-24.06-31.12-29.72-7.67-3.24-13.84-6.01-20.94-7.16-8.46-1.37-15.75-1.8-21.86-1.31-14.85,1.21-28.46,6.57-40.85,16.1-1.42,1.09-3.74,3.33-6.96,6.7-5.04,5.27-9.64,10.36-13.1,16.2-.11.19-.29.33-.5.4-.49.17-1.02-.09-1.18-.58-4.46-13.23-10.92-28.43-23.54-35.41-8.35-4.63-17.96-2.67-25.13,3.22-7.12,5.86-8.92,15.21-5.16,23.58,1.67,3.72,2.9,6.09,3.67,7.12,7.9,10.49,14.83,21.57,20.78,33.23,1.48,2.89,1.81,6.14.99,9.74-1.86,8.23-3.15,12.83-4.38,20.39-.08.49-.91,4.7-2.49,12.62-2.4,12-4.81,27.42-7.24,46.26-.93,7.2-1.02,12.59-.25,16.17,2.3,10.77,8.98,16.15,20.05,16.16,10.23,0,19.24-3.57,22.49-14.07,1.49-4.79,2.47-10.53,2.96-17.23.43-6.01.89-10.8,1.36-14.35,1.86-14,4.36-30.23,7.49-48.7,1.54-9.07,4.4-18.37,8.57-27.9,9.76-22.25,30.15-34.06,54.4-27.83,13.92,3.58,22.08,14.18,26.65,27.27,4.15,12.09,5.76,24.48,4.83,37.17-.8,13.41-5.21,28.01-15.08,37.65-5.39,5.26-10.48,7.53-18.31,8.11-4.73.36-8.12.39-10.19.1-4.59-.65-9.12-1.42-13.61-2.3-4.53-.89-8.32.43-11.35,3.94-6.83,7.92-7.64,19.45-.72,27.63,8.69,10.27,24.18,11.97,37,11.83,7.03-.08,13.79-1.09,20.28-3.02,3.48-1.04,6.14-2.55,9.9-3.97,8.23-3.1,16.3-9.37,22.54-15.34,10.95-10.48,17.73-26.76,21.04-41.34,4.73-20.87,4.92-41.4.59-61.57h0ZM1488.38,147.97s.02.05.02.08v.06s0-.09-.02-.14ZM1609.79,117.1s-.03.03-.05.03c.03-.02.06-.04.08-.07,0,.02-.02.03-.03.04h0Z"/>
        <path class="cls-1" d="M1102.86,96.79c-.49-2.07-1.83-4.24-4.01-6.51-.36-.38-.79-.69-1.26-.93-2.99-1.55-5.11-2.78-6.37-3.7-4.63-3.41-7.19-7.78-7.69-13.09-.39-4.02.17-7.73,1.66-11.13,3.07-7,12.23-11.65,19.58-12.71.73-.11,3.46-.15,8.19-.13,7.38.03,15.4,3.18,20.63,7.57,8.53,7.15,13.53,16.23,14.99,27.25,1.84,13.91,2.31,27.93,1.42,42.06-.98,15.41-4.78,27.65-18.37,36.42-4.67,3.01-9.91,4.21-15.73,3.61-3.26-.34-5.55-1.04-6.87-2.11-5.15-4.17-5.21-12.52-4.95-18.55.67-15.05.85-25.96.54-32.73-.31-6.6-.89-11.71-1.76-15.32h0Z"/>
        <path class="cls-1" d="M1761.08,84.72s.03-.08.03-.12c.01-.05,0-.11-.03-.16.05.09.05.2,0,.28Z"/>
        <path class="cls-1" d="M1066.66,186.44c-.04,15.03-.14,44.21-.3,87.54-.03,7.73-.53,15.89-1.5,24.5-1.09,9.61-5.37,18.21-14.7,21.9-2.17.85-5.3,1.25-9.41,1.2-9.11-.13-15.94-6.03-17.69-14.86-.99-4.95-1.52-10.44-1.6-16.48-.26-3.93-.68-8.53-.57-12.02.17-5.43.39-12.75.66-21.98.35-12.08.48-23.4.37-33.96-.28-26.7-.17-54.05-.35-79.54-.02-2.75-.35-5.67-.25-8.34.3-8.37-.04-16.69-1.03-24.94-.95-6.51-2.61-13.91-8.22-18.11-5.84-4.36-14.67-8.82-16.64-16.36-3.91-14.85,7.02-26.21,21.59-26.79,7.48-.3,13.94,1.23,21.08,4.26,4.19,1.78,7.53,3.68,10.01,5.71,4.99,4.09,8.61,9.3,10.86,15.63,2.51,7.07,4.59,15.14,5.35,22.4.49,4.82,1.42,9.95,1.56,15.75.39,17.17.57,27.73.53,31.66-.15,13.46.29,28.56.25,42.83h0Z"/>
        <path class="cls-1" d="M1234.67,133.42c-.29,2.67-1.08,5.42-2.35,8.25-2.42,7.83-7.09,14.26-14.02,19.31-3.75,2.73-7.95,4.29-12.6,4.7-8.11.71-13.2-2.82-15.27-10.58-.87-3.29-1.17-6.92-.89-10.87.69-9.75.86-22.67.51-38.76-.1-4.83-1.44-9.31-4.01-13.45-.6-.97-1.45-1.78-2.45-2.34-6.76-3.82-13.32-7.12-14.55-15.6-2.4-16.56,9.84-25.69,25.01-25.72,5.77,0,10.87.95,15.28,2.88,7.25,3.17,13.39,6.4,17.39,13.3,2.17,3.72,4.03,7.16,5.26,11.18,2.28,7.46,3.42,15.11,3.41,22.96.72,12.26.48,23.84-.72,34.74h0Z"/>
        <path class="cls-1" d="M1852.34,193.03c.09-7.92.12-18.27.07-31.04-.06-18.61-.17-32.35-3.69-47.59-5.99-25.96-20.49-44.98-43.49-57.06-3.2-1.68-8.03-3.54-14.48-5.58-5.09-1.61-10.07-2.7-14.94-3.29-26.99-3.23-53-.56-78.02,8.02-5.4,1.86-13.04,5.7-16.05,10.64-4.06,6.69-4.15,13.43-.26,20.23,4.04,7.05,12.43,11.03,20.25,8.49,8.63-2.81,16.87-5.56,25.96-6.86.61-.09,3.73-.58,9.34-1.45,10.07-1.57,22.37-1.19,32.38,2.15,11.01,3.69,22.76,11.01,28.38,21.42,2.42,4.48,4.12,8.9,5.11,13.25,2.03,8.95,3.06,15.04,3.07,18.25.05,10.83.14,18.24.27,22.24.31,9.81.45,17.23.41,22.26-.03,4.84-.11,12.56-.22,23.15-.05,4.39.43,8.3,1.3,12.77,3,15.32,21.19,19.99,33.42,13.77,4.85-2.46,7.95-7.23,9.82-12.14.9-2.37,1.39-5.65,1.46-9.84.11-6.16-.17-13.83-.09-21.79ZM1761.08,84.72s.03-.08.03-.12c.01-.05,0-.11-.03-.16.05.09.05.2,0,.28Z"/>
        <path class="cls-1" d="M1727.71,135.84c-.69,2.9-1.32,6-1.89,9.31-.44,2.55-.68,5.7-.73,9.45-.11,8.45-.24,16.98-.4,25.6.49,10.14.7,19.35.63,27.63-.03,3.27-.25,7.37-.65,12.31-1.44,8.77-7.09,16.35-15.81,18.75-4.41,1.22-9.53,1.02-15.37-.59-6.49-1.78-10.63-6.02-12.43-12.72-.88-3.27-1.32-6.02-1.33-8.25-.08-17.04-.05-32.31.1-45.82.04-3.6.44-8.82.98-12.68,1.03-7.39,3.68-14.07,7.95-20.03,5.11-7.16,13.92-9.84,23.24-10.29,5.65-.28,10.6,1.31,14.85,4.78.75.61,1.09,1.6.86,2.55h0Z"/>
      </g>
      <g>
        <path class="cls-1" d="M882.17,77.52c1.15,1.08,1.83,1.76,2.02,2.04,10.79,15.42,16.14,30.92,18.99,49.38.38,2.45.6,4.95.66,7.5.08,3.2.71,6.29.69,10-.09,16.62-.51,25.65-.12,39.98.13,4.82.21,13.99.24,27.5.02,9.23-3.39,20.17-12.46,23.97-4.73,1.99-9.85,2.59-15.36,1.8-11.78-1.68-17.99-11.98-18.18-23.02-.37-21.95-.5-35.53-.39-40.74.2-10.13.28-18.05.24-23.76-.05-5.77-.59-12.27-1.64-19.48-.91-6.24-2.46-11.57-4.63-15.98-4.15-8.42-10.97-17.75-19.58-22.03-3.19-1.58-7.3-3.19-12.33-4.82-5.65-1.83-12.81-2.68-21.49-2.55-13.11.2-25.62,2.25-37.51,6.15-4.55,1.49-6.86,2.25-6.93,2.27-6.59,1.92-14.12,1.18-18.99-3.91-7.51-7.87-7.64-19.64,1.02-27.11,9.03-7.78,19.59-10.68,31.33-13.7,16.02-4.13,33.77-4.71,50-3.45,14.05,1.09,28.74,4.51,41.18,11.46,9.08,5.07,16.87,9.87,22.63,17.47.07.1.17.29.28.57.08.18.19.33.33.46Z"/>
        <path class="cls-1" d="M13.3,61.98s.04-.03.06-.05c-.04.03-.08.07-.1.11.01-.02.02-.04.04-.06Z"/>
        <path class="cls-1" d="M21.42,55.13s0,.05-.01.08c0,0,0,.03-.02.04.02-.04.03-.08.03-.12Z"/>
        <path class="cls-1" d="M506.82,230.91c-11.46,10.63-29.77,12.25-45.02,10.42-10.99-1.32-21.43-3.72-32.87-7.27-7.86-2.45-17.46-5.35-28.8-8.72-10.9-3.23-21.86-5.67-32.88-7.32-4.82-.71-9.77-.89-14.84-.53-5.74.41-12.85,3.87-17.7,4.82-10.65,2.09-18.98-4.9-17.26-15.63,2.09-12.98,12.74-22.47,25.22-26.1,4.29-1.25,8.41-2.04,12.37-2.35,10.93-.87,21.74.08,32.44,2.85,5.91,1.11,11.95,2.51,18.13,4.19,5.91,1.6,14.59,2.98,20.02-.37,4.5-2.77,7.95-6.28,10.34-10.52,3.97-7.02,6.25-14.54,6.86-22.56.89-11.73-.1-22.7-2.99-32.89-1.11-3.89-3.27-8.33-6.5-13.32-7.99-12.37-22.69-17.89-36.91-18.2-11.71-.25-24.48,1.32-35.6,4.76-4.09,1.27-8.25,2.45-12.49,3.56-6.33,1.65-13.99-2.52-17.65-7.18-3.57-4.55-4.23-10.79-2.75-16.41,1.59-6.03,5.81-10.6,12.67-13.7,15.64-7.06,32.39-10.25,49.4-10.88,25.68-2.19,51.56,4.01,72.14,19.76,5.79,4.44,10.54,9.93,14.25,16.47,5.79,10.19,9.52,21.23,11.2,33.14,1.88,13.35,1.8,26.06-.24,38.11-1.46,8.61-5.05,17.54-10.76,26.79-4.57,7.39-10.42,11.79-18.15,15.37-.38.18-.54.63-.36,1.01.1.21.29.37.52.42,8.38,1.79,16.68,2.6,24.89,2.45,1.81-.29,3.48-.6,5.01-.92,5.56-1.16,11.54-4.59,16.35-7.42,3.13-1.84,7.06.46,8.79,3.33,6.77,11.19,2.25,26.41-6.83,34.84h0Z"/>
        <path class="cls-1" d="M584.31,233.66c-6.71,5.8-12.68,6.92-21.43,5.81-10.44-1.33-16.67-9.74-17.45-20.04-.61-8.03-.88-20.95-.82-38.75.1-28.01.2-44.48.29-49.39.12-6.43-.57-13.6-1.04-20.37-.47-6.9-3.15-15.29-8.15-20.7-2.5-2.71-7.43-5-10.38-7.04-7.07-4.89-7.91-15.32-4.87-22.63,4.08-9.82,12.33-12.18,22.44-12.49,8.51-.26,16.59,2.03,24.24,6.88,8.97,5.69,14.97,13.76,17.98,24.21,2.13,7.39,3.7,15.29,4.69,23.7.58,4.93.86,12.99.83,24.19-.09,35.72-.11,63.6-.06,83.64.02,8.01-.89,14.98-5.31,21.88-.27.41-.59.78-.96,1.1h0Z"/>
        <path class="cls-1" d="M303.4,92.93c-.39-7.21-.74-14.46-1.03-21.74-.13-3.13-.5-5.83-1.13-8.11-2.29-8.39-7.77-13.29-16.44-14.68-6.65-1.07-12.63.13-17.94,3.6-9.68,6.34-9.47,15.43-9.45,26.87.01,8.24.19,16.54-.39,24.58-.65,8.91-1.27,16.51-1.85,22.8-.43,4.77-1.48,9.13-2.29,13.63-4.5,25.03-19.42,47.22-40.59,61.44-.02,0-.04.02-.06.03-.13.04-.27-.03-.32-.17-.1-.31-.12-.66-.06-1.05,6.74-15.72,4.56-31.86-.85-47.63-1.49-4.33-4.4-11.28-6.14-17-2.78-9.18-5.61-17.53-8.48-25.04-4.9-12.82-7.87-20.98-8.91-24.48-.88-2.93-3.74-11.14-8.58-24.63-2.62-7.29-7.72-11.6-15.31-12.93-5.75-1.01-10.8-.3-15.16,2.12-8.99,4.99-12.83,12.73-11.54,23.24,1.7,13.74,9.96,31.37,12.54,38.73,2.95,8.45,5.77,16.08,8.45,22.87,4.16,10.55,9.51,24.78,16.06,42.68,2.69,7.36,4.46,17.48,1.97,25.07-3.02,9.22-9.06,15.71-17.73,20.03-4.42,2.2-12.47,5.06-17.66,5.67-20.15,2.34-40.15,1.24-58.3-7.8-9.05-4.51-18.48-11.99-23.59-21.1-7.34-12.37-6.38-27.81.74-39.51,2.11-3.47,4.5-6.05,7.18-7.73,9.8-6.16,21.8-5.98,29.86,2.91,6.52,7.2,5.83,19.6-.34,26.58-.45.51-.87,1.57-1.24,3.18-.1.41-.01.83.24,1.17,1.05,1.44,2.55,2.17,4.52,2.18,13.15.1,23.29-6.61,28.92-18.21,1.59-3.28,2.89-6.51,3.91-9.7,1.49-4.62.99-9.25,1.06-14.21.16-11.39-5.39-22.47-13.37-30.23-2.95-2.87-5.56-5.16-7.85-6.85-5.77-4.27-12.11-7.21-19.03-8.83-21.8-5.09-42.01-1.51-60.62,10.75-6.31,4.15-11.23,9.18-14.75,15.07-5.31,7.17-9.16,13.64-11.55,19.43-3.44,8.33-5.51,17.98-6.21,28.96-.18,2.86-.08,6.46.3,10.81.56,6.41.91,10,1.06,10.75,2.05,10.35,5.17,18.61,9.35,24.77,4.89,7.21,8.57,12.21,11.03,14.98,5.51,6.19,12.45,11.91,20.84,17.16,17.69,11.05,38.3,16.77,59.38,17.4,10.66.32,20.57.04,29.74-.83,4.84-.46,13.54-1.9,26.11-4.33,4.66-.9,9.31-2.69,13.96-3.73,2.89-.65,6.35-1.68,10.39-3.11,11-3.87,21.24-8.11,30.71-12.72,17.86-8.68,32.49-19.27,46.37-32.61,8.01-7.69,15.01-16.59,21.02-26.69,4.96-8.35,8.53-15.35,10.71-21,2.34-6.06,4.76-13.92,7.26-23.57,1.81-6.98,3.16-16.49,4.05-28.53.91-9.73,1.25-16.64,1.03-20.71h0ZM20.97,233.14s-.17,0-.27-.11-.13-.23-.09-.27c.05-.05.17,0,.27.11s.13.23.09.27Z"/>
        <path class="cls-1" d="M13.3,61.98s.04-.03.06-.05c-.04.03-.08.07-.1.11.01-.02.02-.04.04-.06Z"/>
        <path class="cls-1" d="M786.49,136.44c-.69,2.9-1.32,6-1.89,9.31-.44,2.55-.68,5.7-.73,9.45-.11,8.45-.24,16.98-.4,25.6.49,10.14.7,19.35.63,27.63-.03,3.27-.25,7.37-.65,12.31-1.44,8.77-7.09,16.35-15.81,18.75-4.41,1.22-9.53,1.02-15.37-.59-6.49-1.78-10.63-6.02-12.43-12.72-.88-3.27-1.32-6.02-1.33-8.25-.08-17.04-.05-32.31.1-45.82.04-3.6.44-8.82.98-12.68,1.03-7.39,3.68-14.07,7.95-20.03,5.11-7.16,13.92-9.84,23.24-10.29,5.65-.28,10.6,1.31,14.85,4.78.75.61,1.09,1.6.86,2.55h0Z"/>
        <path class="cls-1" d="M708.89,116.79c-.78-19.14-3.61-38.79-16.75-53.32-14.28-14.97-39.99-20.52-59.2-11.86-12.71,5.2-19.58,24.99-5.44,32.5,8.76,4.61,22.27,3.25,28.98,12.02,6.5,8.55,6.16,18.88,6.7,29.64.29,11.35.25,23.07.24,34.46,0,16.31-.58,28.71-2.07,44.59-1.37,11.94-2.77,24.51-7.06,35.19-6.01,13.18-18.02,22.1-29.64,30.81-40.26,29.26-120.97,19.72-173.96,3.4-34.26-10.29-70.89-23.97-106.7-23.93-41.78.86-83.11,15.98-112.95,45.47-5.73,5.76-10.7,14.75,1.73,9.43,43.9-26.09,93.97-32.51,144.13-16.03,19.06,5.99,37.95,13.82,56.46,20.97,31.67,12.54,64.68,22.81,99.09,23.58,53.77-.88,111.27-19.19,145.36-62.84,33.85-43.91,32.05-100.84,31.07-153.85v-.23h.01ZM448.84,276.93s.07-.02.1-.02h.03s-.09.01-.13.02Z"/>
        <path class="cls-1" d="M427.48,270.02s-.09,0-.13.02c.03-.01.07-.02.1-.02h.03Z"/>
        <ellipse class="cls-1" cx="20.79" cy="232.94" rx=".12" ry=".26" transform="translate(-151.64 74.94) rotate(-42.4)"/>
        <path class="cls-1" d="M427.48,270.02s-.09,0-.13.02c.03-.01.07-.02.1-.02h.03Z"/>
      </g>
    </g>
  </g>
</svg>